
            <svg xmlns="http://www.w3.org/2000/svg">
                <filter id="grayscale">
                    <feColorMatrix type="saturate" values="0"/>
                </filter>
                <g filter="url(#grayscale)">
                    <svg xmlns="http://www.w3.org/2000/svg" viewBox="59.40999877929687 101.94363008117676 456.19000244140625 374.15755396270754"> <svg xmlns="http://www.w3.org/2000/svg" xmlns:xlink="http://www.w3.org/1999/xlink" version="1.1" id="Layer_1" x="167.499" y="171.94363008117676" viewBox="0 0.6130794286727905 192 138.08692932128906" xml:space="preserve" height="172.60826661512326" width="240" preserveAspectRatio="xMinYMin" enable-background="new 0 0 192 139" style="overflow: visible;"><rect y="0.7" class="st0" width="192" height="137" style="fill: none;"></rect><path class="st1" d="M191,15.7c1.6-5.5-1.2-11.3-6.6-13.4c-8.8-3.5-21.3-1.5-35.1,5.5c-18.1,9.1-38.8,27.5-48.8,47.7l-1.7-3  c-0.5-0.8-1-1.7-1.5-2.5c3.8-7.7,6.1-15.6,6.1-21.7c0-6-3.7-8.9-7.2-9c-3.8-0.1-7.9,3-8.2,9c-0.3,5.7,2,13.5,6.4,21.7  c-0.5,0.9-1,1.9-1.5,2.8l-1.5,2.7C81.4,35.3,60.7,17,42.7,7.8c-13.9-7-26.3-9-35.1-5.5C2.2,4.4-0.6,10.2,1,15.7  c4.2,14.2,23.1,29.8,39.4,37.8C30.7,58.1,21.5,65,16.9,72.1c-3.4,5.2-4.1,10.2-2.2,14.4c4.9,10.9,25.5,8.2,43.8,0.8  c13.5-5.5,24.9-14.8,32.7-26.5c1,2.4,1.8,4.8,2.5,7.3l1.1,3.3L93.5,75c-2.8,9.4-11,41.6-0.2,62l0.1,0.1c0.5,1,1.6,1.6,2.7,1.6  c0,0,0.1,0,0.1,0c1.2,0,2.2-0.7,2.7-1.7c10.7-20.3,2.5-52.6-0.2-62l-1.2-3.6l1.1-3.3c0.6-2.4,1.5-4.8,2.4-7.2  c7.8,11.6,19.2,21,32.7,26.5c9.6,3.9,19.8,6.5,28.1,6.5c7.5,0,13.3-2.1,15.6-7.3c1.9-4.2,1.1-9.2-2.2-14.4  c-4.6-7.1-13.6-14-23.2-18.5C168.3,45.4,187,29.5,191,15.7z M90.6,28.4c0.2-4.4,2.9-6.6,5.5-6.6c0,0,0.1,0,0.1,0  c2.2,0.1,4.7,1.8,4.7,6.5c0,5.3-1.8,12.1-5,19C92.2,40.1,90.3,33.4,90.6,28.4z M57.5,85c-16.6,6.8-36.4,9.8-40.5,0.5  c-1.6-3.5-0.9-7.5,2-12c7.5-11.6,28.4-22.9,42.1-22.9c0.7,0,1.3-0.6,1.3-1.3s-0.6-1.3-1.3-1.3c-5.3,0-11.6,1.6-17.8,4.1  C43.2,52.1,43.2,52,43,52C26.6,44.4,7.3,28.4,3.4,15C2.1,10.7,4.3,6.3,8.4,4.7c8.1-3.2,19.9-1.3,33.1,5.4  c18.1,9.2,38.9,27.7,48.4,48.1C82.4,70,71,79.5,57.5,85z M96.5,135.8c-0.1,0.3-0.4,0.3-0.5,0.3c-0.1,0-0.4,0-0.5-0.3l0-0.1  c-10.3-19.5-2.3-50.9,0.4-60l0.2-0.4l0.1,0.4C98.8,84.8,106.8,116.3,96.5,135.8z M96,67.3L96,67.5L96,67.3c-0.9-3-2-6-3.3-9  c0.3-0.4,0.5-0.9,0.8-1.3l1.6-2.8c0.3-0.5,0.6-1,0.8-1.5c0.2,0.4,0.5,0.8,0.7,1.2l1.8,3.1c0.3,0.4,0.5,0.9,0.8,1.3  C97.9,61.3,96.8,64.3,96,67.3z M148.9,52.3c-6.2-2.6-12.6-4.2-18-4.2c-0.7,0-1.3,0.6-1.3,1.3s0.6,1.3,1.3,1.3  c13.7,0,34.6,11.4,42.1,22.9c2.9,4.5,3.6,8.5,2,12c-4.2,9.3-23.9,6.2-40.5-0.5c-13.5-5.5-24.9-15-32.4-26.9  c9.5-20.3,30.3-38.9,48.4-48.1c13.2-6.7,25-8.6,33.1-5.4c4.1,1.6,6.3,6.1,5.1,10.4C184.6,28.7,165.3,44.7,148.9,52.3z" style="fill: #ffcba0; fill-opacity: 1;"></path></svg> <svg y="381.6788150405884" viewBox="3.259999990463257 -0.1599999964237213 316.19000244140625 24.4223690032959" x="129.40999877929687" height="24.4223690032959" width="316.19000244140625" style="overflow: visible;"><g fill="#ffffff" fill-opacity="1" style=""><path d="M6.72 0.77L6.72 9.92L6.62 11.07L7.10 10.40L16.19 0.77L20.61 0.77L11.01 10.85L21.06 24L16.74 24L8.51 12.99L6.72 14.75L6.72 24L3.26 24L3.26 0.77L6.72 0.77ZM29.14 24L25.78 24L35.99-0.16L36.18-0.16L46.39 24L42.49 24L35.06 5.18L37.53 3.55L29.14 24ZM30.97 18.24L31.99 15.30L40.25 15.30L41.43 18.24L30.97 18.24ZM50.03 4.06L50.03 0.77L65.52 0.77L65.52 4.06L59.41 4.06L59.41 24L55.98 24L55.98 4.06L50.03 4.06ZM88.55 0.77L91.98 0.77L91.98 24L88.55 24L88.55 13.98L76.78 13.98L76.78 24L73.35 24L73.35 0.77L76.78 0.77L76.78 10.72L88.55 10.72L88.55 0.77ZM117.98 24L114.68 24L114.68 0L114.71 0L127.06 17.50L125.59 17.18L137.88 0L137.94 0L137.94 24L134.55 24L134.55 7.71L134.78 9.47L126.20 21.60L126.14 21.60L117.40 9.47L117.98 7.87L117.98 24ZM148.46 24L145.10 24L155.31-0.16L155.50-0.16L165.71 24L161.81 24L154.38 5.18L156.85 3.55L148.46 24ZM150.29 18.24L151.31 15.30L159.57 15.30L160.75 18.24L150.29 18.24ZM176.04 24L176.04 16.35L167.43 0.77L171.66 0.77L178.34 13.44L177.32 13.50L183.94 0.77L188.14 0.77L179.46 16.35L179.46 24L176.04 24ZM211.70 24L208.41 24L208.41 0L208.44 0L220.79 17.50L219.32 17.18L231.61 0L231.67 0L231.67 24L228.28 24L228.28 7.71L228.50 9.47L219.93 21.60L219.86 21.60L211.13 9.47L211.70 7.87L211.70 24ZM244.27 0.77L244.27 15.71Q244.27 17.18 245.01 18.37Q245.74 19.55 246.96 20.26Q248.18 20.96 249.68 20.96L249.68 20.96Q251.28 20.96 252.53 20.26Q253.78 19.55 254.50 18.37Q255.22 17.18 255.22 15.71L255.22 15.71L255.22 0.77L258.58 0.77L258.58 15.81Q258.58 18.34 257.39 20.24Q256.21 22.14 254.19 23.20Q252.18 24.26 249.68 24.26L249.68 24.26L249.68 24.26Q247.25 24.26 245.23 23.20Q243.22 22.14 242.05 20.24Q240.88 18.34 240.88 15.81L240.88 15.81L240.88 0.77L244.27 0.77ZM281.16 2.59L279.85 5.22Q278.63 4.58 277.22 4.13Q275.82 3.68 274.50 3.68L274.50 3.68Q272.71 3.68 271.66 4.50Q270.60 5.31 270.60 6.72L270.60 6.72Q270.60 7.71 271.30 8.45Q272.01 9.18 273.13 9.73Q274.25 10.27 275.50 10.75L275.50 10.75Q276.55 11.14 277.59 11.66Q278.63 12.19 279.48 12.96Q280.33 13.73 280.82 14.86Q281.32 16 281.32 17.63L281.32 17.63Q281.32 19.49 280.41 20.99Q279.50 22.50 277.78 23.38Q276.07 24.26 273.64 24.26L273.64 24.26Q272.17 24.26 270.78 23.92Q269.38 23.58 268.15 23.02Q266.92 22.46 265.93 21.79L265.93 21.79L267.46 19.14Q268.23 19.68 269.22 20.18Q270.22 20.67 271.29 20.96Q272.36 21.25 273.32 21.25L273.32 21.25Q274.38 21.25 275.40 20.88Q276.42 20.51 277.10 19.73Q277.77 18.94 277.77 17.66L277.77 17.66Q277.77 16.58 277.18 15.82Q276.58 15.07 275.61 14.53Q274.63 13.98 273.51 13.57L273.51 13.57Q272.42 13.15 271.30 12.64Q270.18 12.13 269.22 11.41Q268.26 10.69 267.67 9.62Q267.08 8.54 267.08 6.98L267.08 6.98Q267.08 5.12 267.96 3.73Q268.84 2.34 270.41 1.54Q271.98 0.74 274.02 0.64L274.02 0.64Q276.36 0.64 278.09 1.22Q279.82 1.79 281.16 2.59L281.16 2.59ZM289.38 24L289.38 0.77L292.80 0.77L292.80 24L289.38 24ZM318.01 19.17L319.45 22.24Q318.94 22.59 317.93 23.09Q316.92 23.58 315.56 23.94Q314.20 24.29 312.57 24.26L312.57 24.26Q309.85 24.22 307.69 23.30Q305.53 22.37 304.02 20.75Q302.52 19.14 301.70 17.04Q300.89 14.94 300.89 12.58L300.89 12.58Q300.89 9.95 301.72 7.76Q302.55 5.57 304.10 3.94Q305.66 2.30 307.75 1.41Q309.85 0.51 312.34 0.51L312.34 0.51Q314.49 0.51 316.22 1.09Q317.94 1.66 319.13 2.43L319.13 2.43L317.78 5.63Q316.86 4.99 315.50 4.40Q314.14 3.81 312.47 3.81L312.47 3.81Q310.84 3.81 309.38 4.46Q307.93 5.12 306.82 6.29Q305.72 7.46 305.08 9.01Q304.44 10.56 304.44 12.38L304.44 12.38Q304.44 14.24 305.02 15.81Q305.59 17.38 306.66 18.53Q307.74 19.68 309.24 20.32Q310.74 20.96 312.63 20.96L312.63 20.96Q314.42 20.96 315.78 20.42Q317.14 19.87 318.01 19.17L318.01 19.17Z" transform="translate(0, 0)"></path></g></svg></svg>
                </g>
            </svg>
        